<svg xmlns="http://www.w3.org/2000/svg" width="21" height="13"  fill="#8f8f8f" fill-rule="evenodd"><path d="M.76 5.205l-.67.972c-.12.203-.12.443 0 .646s.343.542.67.972c.54.711 1.178 1.422 1.912 2.088C4.808 11.821 7.321 13 10.192 13s5.384-1.179 7.52-3.117a15.4 15.4 0 0 0 1.912-2.088l.67-.972c.12-.203.12-.443 0-.646s-.343-.542-.67-.972a15.4 15.4 0 0 0-1.912-2.088C15.576 1.179 13.063 0 10.192 0s-5.384 1.179-7.52 3.117C1.937 3.783 1.3 4.494.76 5.205zm3.15 3.69a13.92 13.92 0 0 1-1.724-1.884L1.817 6.5l.368-.511c.488-.643 1.065-1.286 1.724-1.884 1.844-1.673 3.95-2.661 6.281-2.661s4.437.988 6.281 2.661c.659.598 1.236 1.241 1.724 1.884l.368.511-.368.511c-.488.643-1.065 1.286-1.724 1.884-1.845 1.673-3.95 2.661-6.281 2.661s-4.437-.988-6.281-2.661z"/><path d="M10.191 9.389c-1.876 0-3.397-1.293-3.397-2.889s1.521-2.889 3.397-2.889 3.397 1.293 3.397 2.889-1.521 2.889-3.397 2.889z" fill-rule="nonzero"/></svg>