<svg xmlns="http://www.w3.org/2000/svg" width="25" height="24"><path d="M8.187 7.245L11.415.636c.414-.848 1.612-.848 2.026 0l3.228 6.609 7.219 1.066c.926.137 1.295 1.287.625 1.948L19.291 15.4l1.233 7.263c.158.933-.811 1.644-1.639 1.203l-6.456-3.431-6.456 3.431c-.829.44-1.798-.271-1.639-1.203L5.566 15.4.343 10.259c-.671-.66-.301-1.811.625-1.948l7.219-1.066z" fill="#fc0"/><path d="M9.941 9.302l1.948-3.924c.25-.504.973-.504 1.223 0l1.948 3.924 4.357.633a.68.68 0 0 1 .377 1.156l-3.152 3.052.744 4.312c.096.554-.489.976-.989.715L12.5 17.133l-3.896 2.037c-.5.261-1.085-.161-.989-.715l.744-4.312-3.152-3.052a.68.68 0 0 1 .377-1.156l4.357-.633z" fill="#fff"/></svg>