<svg xmlns="http://www.w3.org/2000/svg" width="22" height="25"  fill-rule="evenodd"><rect fill="#fff" x="1" y="16.333" width="19.7" height="8" rx="4"/><path d="M15.688 14.333c3.332 0 6.034 2.612 6.034 5.833h0V22.5c0 .644-.54 1.167-1.207 1.167s-1.207-.522-1.207-1.167h0v-2.333c0-1.933-1.621-3.5-3.62-3.5h0-9.654c-1.999 0-3.62 1.567-3.62 3.5h0V22.5c0 .644-.54 1.167-1.207 1.167S0 23.144 0 22.5h0v-2.333c0-3.222 2.701-5.833 6.034-5.833h0zm-4.827-14c3.332 0 6.034 2.612 6.034 5.833S14.193 12 10.861 12 4.827 9.388 4.827 6.166 7.528.333 10.861.333zm0 2.333c-2 0-3.62 1.567-3.62 3.5s1.621 3.5 3.62 3.5 3.62-1.567 3.62-3.5-1.621-3.5-3.62-3.5z" fill="#00893d"/></svg>